<?xml version="1.0" encoding="utf-8"?>
<!-- Generator: Adobe Illustrator 16.0.4, SVG Export Plug-In . SVG Version: 6.00 Build 0)  -->
<!DOCTYPE svg PUBLIC "-//W3C//DTD SVG 1.1//EN" "http://www.w3.org/Graphics/SVG/1.1/DTD/svg11.dtd">
<svg version="1.1" id="Layer_1" xmlns="http://www.w3.org/2000/svg" xmlns:xlink="http://www.w3.org/1999/xlink" x="0px" y="0px"
	 width="50px" height="50px" viewBox="0 0 50 50" enable-background="new 0 0 50 50" xml:space="preserve">
<g>
	<g>
		<path d="M8.619,5.142v32.062h-1.21V5.142H8.619z M9.008,42.86H9.74v1l0.349,0.236h1.471l0.256-0.236v-1.916H9.568v-0.596h2.247
			V39.79l-0.256-0.236h-1.471c-0.031,0-0.103,0-0.219,0c-0.084,0-0.13,0.025-0.13,0.076c-0.028,0.059-0.042,0.229-0.042,0.521
			c0,0.266,0,0.438,0,0.52H9.008v-1.518l0.43-0.359h2.811l0.391,0.359v2.113c-0.088,0.082-0.129,0.157-0.129,0.239v0.078v0.043
			c0,0.104,0.041,0.196,0.129,0.276v2.47l-0.391,0.36H9.438l-0.43-0.36V42.86z M10.345,5.142v32.062H9.135V5.142H10.345z
			 M11.989,5.142v32.062h-0.304V5.142H11.989z M12.896,5.142v32.062h-0.258V5.142H12.896z M13.72,5.142v32.062h-0.262V5.142H13.72z"
			/>
		<path d="M14.888,5.142v32.062h-0.262V5.142H14.888z M16.656,5.142v32.062h-1.21V5.142H16.656z M19.034,41.026v-1.234l-0.257-0.236
			h-1.688c-0.028,0-0.069,0-0.131,0c-0.058,0-0.084,0.025-0.084,0.076v1.039h-0.776v-1.518l0.387-0.359h2.981l0.392,0.359v2.475
			l-0.392,0.438h-2.288l-0.262,0.317v1.677h2.939v0.676h-3.76v-2.829c0-0.028,0.014-0.067,0.043-0.12
			c0.027-0.055,0.055-0.105,0.088-0.158c0.057-0.056,0.141-0.146,0.256-0.277h2.293L19.034,41.026z M18.385,5.142v32.062h-0.26
			V5.142H18.385z M19.207,5.142v32.062h-0.303V5.142H19.207z M20.937,5.142v32.062h-1.211V5.142H20.937z"/>
		<path d="M21.845,5.142h0.26v32.062h-0.26V5.142z M22.664,5.142h0.262v32.062h-0.262V5.142z M26.08,42.065h-3.026v-3.15h0.735
			v2.354h2.292v-2.354h0.734v5.941H26.08V42.065z M24.394,5.142h1.212v32.062h-1.212V5.142z M26.121,5.142h0.305v32.062h-0.305
			V5.142z M26.945,5.142h1.209v32.062h-1.209V5.142z"/>
		<path d="M30.273,5.142v32.062h-1.211V5.142H30.273z M30.402,42.979h0.688c-0.025,0.082-0.02,0.233,0.023,0.461
			c0.043,0.225,0.078,0.363,0.105,0.42c0,0.051,0.035,0.104,0.109,0.158c0.07,0.053,0.123,0.078,0.15,0.078h1.729l0.258-0.236
			v-1.478l-0.258-0.317H30.4v-3.15h3.76v0.678h-2.939v1.758h2.42l0.52,0.516v2.511l-0.52,0.481h-2.725L30.4,44.376v-1.396H30.402z
			 M31.094,5.142v32.062h-0.305V5.142H31.094z M33.643,5.142v32.062h-1.211V5.142H33.643z M34.551,5.142v32.062h-0.258V5.142H34.551
			z M35.373,5.142v32.062h-0.26V5.142H35.373z"/>
		<path d="M36.541,5.142v32.062h-0.26V5.142H36.541z M38.311,5.142v32.062H37.1V5.142H38.311z M37.361,39.392l0.52-0.479h2.809
			l0.432,0.359v1.514h-0.688c0-0.078-0.02-0.229-0.047-0.457c-0.027-0.225-0.057-0.363-0.084-0.42c0-0.051-0.039-0.104-0.109-0.158
			c-0.074-0.052-0.123-0.08-0.15-0.08h-1.602l-0.301,0.238v1.719l0.301-0.121h2.119l0.562,0.518v2.353l-0.562,0.479h-2.68
			l-0.52-0.479V39.392L37.361,39.392z M38.439,44.097h1.729l0.264-0.236v-1.356l-0.264-0.237h-1.729l-0.301,0.237v1.356
			L38.439,44.097z M40.859,5.142v32.062H39.65V5.142H40.859z M41.768,5.142v32.062h-0.256V5.142H41.768z M42.592,5.142v32.062H42.33
			V5.142H42.592z"/>
	</g>
</g>
</svg>
